<?xml version="1.0" encoding="UTF-8"?>
<!--Generator: Apple Native CoreSVG 175-->
<!DOCTYPE svg
PUBLIC "-//W3C//DTD SVG 1.1//EN"
       "http://www.w3.org/Graphics/SVG/1.1/DTD/svg11.dtd">
<svg version="1.1" xmlns="http://www.w3.org/2000/svg" xmlns:xlink="http://www.w3.org/1999/xlink" width="3300" height="2200">
 <!--glyph: "uni1004E4.medium", point size: 100.0, font version: "17.1d1e1", template writer version: "65.1"-->
 <g id="Notes">
  <rect height="2200" id="artboard" style="fill:white;opacity:1" width="3300" x="0" y="0"/>
  <line style="fill:none;stroke:black;opacity:1;stroke-width:0.5;" x1="263" x2="3036" y1="292" y2="292"/>
  <text style="stroke:none;fill:black;font-family:sans-serif;font-size:13;font-weight:bold;" transform="matrix(1 0 0 1 263 322)">Weight/Scale Variations</text>
  <text style="stroke:none;fill:black;font-family:sans-serif;font-size:13;text-anchor:middle;" transform="matrix(1 0 0 1 559.711 322)">Ultralight</text>
  <text style="stroke:none;fill:black;font-family:sans-serif;font-size:13;text-anchor:middle;" transform="matrix(1 0 0 1 856.422 322)">Thin</text>
  <text style="stroke:none;fill:black;font-family:sans-serif;font-size:13;text-anchor:middle;" transform="matrix(1 0 0 1 1153.13 322)">Light</text>
  <text style="stroke:none;fill:black;font-family:sans-serif;font-size:13;text-anchor:middle;" transform="matrix(1 0 0 1 1449.84 322)">Regular</text>
  <text style="stroke:none;fill:black;font-family:sans-serif;font-size:13;text-anchor:middle;" transform="matrix(1 0 0 1 1746.56 322)">Medium</text>
  <text style="stroke:none;fill:black;font-family:sans-serif;font-size:13;text-anchor:middle;" transform="matrix(1 0 0 1 2043.27 322)">Semibold</text>
  <text style="stroke:none;fill:black;font-family:sans-serif;font-size:13;text-anchor:middle;" transform="matrix(1 0 0 1 2339.98 322)">Bold</text>
  <text style="stroke:none;fill:black;font-family:sans-serif;font-size:13;text-anchor:middle;" transform="matrix(1 0 0 1 2636.69 322)">Heavy</text>
  <text style="stroke:none;fill:black;font-family:sans-serif;font-size:13;text-anchor:middle;" transform="matrix(1 0 0 1 2933.4 322)">Black</text>
  <line style="fill:none;stroke:black;opacity:1;stroke-width:0.5;" x1="263" x2="3036" y1="1903" y2="1903"/>
  <g transform="matrix(1 0 0 1 263 1933)">
   <path d="M9.24805 0.830078Q10.8691 0.830078 12.2949 0.214844Q13.7207-0.400391 14.8096-1.49414Q15.8984-2.58789 16.5186-4.01367Q17.1387-5.43945 17.1387-7.05078Q17.1387-8.66211 16.5186-10.0879Q15.8984-11.5137 14.8047-12.6074Q13.7109-13.7012 12.2852-14.3164Q10.8594-14.9316 9.23828-14.9316Q7.62695-14.9316 6.20117-14.3164Q4.77539-13.7012 3.69141-12.6074Q2.60742-11.5137 1.9873-10.0879Q1.36719-8.66211 1.36719-7.05078Q1.36719-5.43945 1.9873-4.01367Q2.60742-2.58789 3.69629-1.49414Q4.78516-0.400391 6.21094 0.214844Q7.63672 0.830078 9.24805 0.830078ZM9.24805-0.654297Q7.91992-0.654297 6.7627-1.14746Q5.60547-1.64062 4.73145-2.51953Q3.85742-3.39844 3.36426-4.56055Q2.87109-5.72266 2.87109-7.05078Q2.87109-8.37891 3.35938-9.54102Q3.84766-10.7031 4.72168-11.582Q5.5957-12.4609 6.75293-12.9541Q7.91016-13.4473 9.23828-13.4473Q10.5762-13.4473 11.7334-12.9541Q12.8906-12.4609 13.7695-11.582Q14.6484-10.7031 15.1465-9.54102Q15.6445-8.37891 15.6445-7.05078Q15.6445-5.72266 15.1514-4.56055Q14.6582-3.39844 13.7842-2.51953Q12.9102-1.64062 11.748-1.14746Q10.5859-0.654297 9.24805-0.654297ZM5.6543-7.05078Q5.6543-6.72852 5.85938-6.52832Q6.06445-6.32812 6.40625-6.32812L8.51562-6.32812L8.51562-4.20898Q8.51562-3.88672 8.71094-3.67676Q8.90625-3.4668 9.23828-3.4668Q9.56055-3.4668 9.77051-3.67676Q9.98047-3.88672 9.98047-4.20898L9.98047-6.32812L12.0898-6.32812Q12.4219-6.32812 12.627-6.52832Q12.832-6.72852 12.832-7.05078Q12.832-7.38281 12.627-7.58789Q12.4219-7.79297 12.0898-7.79297L9.98047-7.79297L9.98047-9.90234Q9.98047-10.2344 9.77051-10.4443Q9.56055-10.6543 9.23828-10.6543Q8.90625-10.6543 8.71094-10.4443Q8.51562-10.2344 8.51562-9.90234L8.51562-7.79297L6.40625-7.79297Q6.06445-7.79297 5.85938-7.58789Q5.6543-7.38281 5.6543-7.05078Z"/>
  </g>
  <g transform="matrix(1 0 0 1 281.867 1933)">
   <path d="M11.709 2.91016Q13.75 2.91016 15.5518 2.12891Q17.3535 1.34766 18.7305-0.0292969Q20.1074-1.40625 20.8887-3.20801Q21.6699-5.00977 21.6699-7.05078Q21.6699-9.0918 20.8887-10.8936Q20.1074-12.6953 18.7305-14.0723Q17.3535-15.4492 15.5469-16.2305Q13.7402-17.0117 11.6992-17.0117Q9.6582-17.0117 7.85645-16.2305Q6.05469-15.4492 4.68262-14.0723Q3.31055-12.6953 2.5293-10.8936Q1.74805-9.0918 1.74805-7.05078Q1.74805-5.00977 2.5293-3.20801Q3.31055-1.40625 4.6875-0.0292969Q6.06445 1.34766 7.86621 2.12891Q9.66797 2.91016 11.709 2.91016ZM11.709 1.25Q9.98047 1.25 8.47656 0.605469Q6.97266-0.0390625 5.83496-1.17676Q4.69727-2.31445 4.05762-3.81836Q3.41797-5.32227 3.41797-7.05078Q3.41797-8.7793 4.05762-10.2832Q4.69727-11.7871 5.83008-12.9297Q6.96289-14.0723 8.4668-14.7119Q9.9707-15.3516 11.6992-15.3516Q13.4277-15.3516 14.9316-14.7119Q16.4355-14.0723 17.5781-12.9297Q18.7207-11.7871 19.3652-10.2832Q20.0098-8.7793 20.0098-7.05078Q20.0098-5.32227 19.3701-3.81836Q18.7305-2.31445 17.5928-1.17676Q16.4551-0.0390625 14.9463 0.605469Q13.4375 1.25 11.709 1.25ZM7.17773-7.05078Q7.17773-6.69922 7.41211-6.47461Q7.64648-6.25 8.01758-6.25L10.8887-6.25L10.8887-3.36914Q10.8887-2.99805 11.1133-2.76855Q11.3379-2.53906 11.6895-2.53906Q12.0605-2.53906 12.29-2.76855Q12.5195-2.99805 12.5195-3.36914L12.5195-6.25L15.4004-6.25Q15.7715-6.25 16.001-6.47461Q16.2305-6.69922 16.2305-7.05078Q16.2305-7.42188 16.001-7.65137Q15.7715-7.88086 15.4004-7.88086L12.5195-7.88086L12.5195-10.752Q12.5195-11.1328 12.29-11.3623Q12.0605-11.5918 11.6895-11.5918Q11.3379-11.5918 11.1133-11.3574Q10.8887-11.123 10.8887-10.752L10.8887-7.88086L8.01758-7.88086Q7.63672-7.88086 7.40723-7.65137Q7.17773-7.42188 7.17773-7.05078Z"/>
  </g>
  <g transform="matrix(1 0 0 1 305.646 1933)">
   <path d="M14.9707 5.66406Q17.0605 5.66406 18.96 5.01465Q20.8594 4.36523 22.4512 3.19336Q24.043 2.02148 25.2197 0.429688Q26.3965-1.16211 27.0459-3.06641Q27.6953-4.9707 27.6953-7.05078Q27.6953-9.14062 27.0459-11.04Q26.3965-12.9395 25.2197-14.5312Q24.043-16.123 22.4512-17.2998Q20.8594-18.4766 18.9551-19.126Q17.0508-19.7754 14.9609-19.7754Q12.8711-19.7754 10.9717-19.126Q9.07227-18.4766 7.48535-17.2998Q5.89844-16.123 4.72168-14.5312Q3.54492-12.9395 2.90039-11.04Q2.25586-9.14062 2.25586-7.05078Q2.25586-4.9707 2.90527-3.06641Q3.55469-1.16211 4.72656 0.429688Q5.89844 2.02148 7.49023 3.19336Q9.08203 4.36523 10.9814 5.01465Q12.8809 5.66406 14.9707 5.66406ZM14.9707 3.84766Q13.1641 3.84766 11.5283 3.2959Q9.89258 2.74414 8.53516 1.74805Q7.17773 0.751953 6.17676-0.610352Q5.17578-1.97266 4.62891-3.6084Q4.08203-5.24414 4.08203-7.05078Q4.08203-8.86719 4.62891-10.5029Q5.17578-12.1387 6.17188-13.501Q7.16797-14.8633 8.52539-15.8594Q9.88281-16.8555 11.5186-17.4023Q13.1543-17.9492 14.9609-17.9492Q16.7773-17.9492 18.4131-17.4023Q20.0488-16.8555 21.4111-15.8594Q22.7734-14.8633 23.7695-13.501Q24.7656-12.1387 25.3174-10.5029Q25.8691-8.86719 25.8691-7.05078Q25.8789-5.24414 25.332-3.6084Q24.7852-1.97266 23.7842-0.610352Q22.7832 0.751953 21.4209 1.74805Q20.0586 2.74414 18.4229 3.2959Q16.7871 3.84766 14.9707 3.84766ZM9.19922-7.05078Q9.19922-6.66992 9.45801-6.4209Q9.7168-6.17188 10.1172-6.17188L14.0625-6.17188L14.0625-2.2168Q14.0625-1.81641 14.3115-1.55762Q14.5605-1.29883 14.9512-1.29883Q15.3516-1.29883 15.6104-1.55273Q15.8691-1.80664 15.8691-2.2168L15.8691-6.17188L19.8242-6.17188Q20.2246-6.17188 20.4785-6.4209Q20.7324-6.66992 20.7324-7.05078Q20.7324-7.46094 20.4785-7.71484Q20.2246-7.96875 19.8242-7.96875L15.8691-7.96875L15.8691-11.9141Q15.8691-12.3242 15.6104-12.583Q15.3516-12.8418 14.9512-12.8418Q14.5605-12.8418 14.3115-12.583Q14.0625-12.3242 14.0625-11.9141L14.0625-7.96875L10.1172-7.96875Q9.70703-7.96875 9.45312-7.71484Q9.19922-7.46094 9.19922-7.05078Z"/>
  </g>
  <text style="stroke:none;fill:black;font-family:sans-serif;font-size:13;font-weight:bold;" transform="matrix(1 0 0 1 263 1953)">Design Variations</text>
  <text style="stroke:none;fill:black;font-family:sans-serif;font-size:13;" transform="matrix(1 0 0 1 263 1971)">Symbols are supported in up to nine weights and three scales.</text>
  <text style="stroke:none;fill:black;font-family:sans-serif;font-size:13;" transform="matrix(1 0 0 1 263 1989)">For optimal layout with text and other symbols, vertically align</text>
  <text style="stroke:none;fill:black;font-family:sans-serif;font-size:13;" transform="matrix(1 0 0 1 263 2007)">symbols with the adjacent text.</text>
  <line style="fill:none;stroke:#00AEEF;stroke-width:0.5;opacity:1.0;" x1="776" x2="776" y1="1919" y2="1933"/>
  <g transform="matrix(1 0 0 1 776 1933)">
   <path d="M3.31055 0.15625Q3.70117 0.15625 3.91602-0.00976562Q4.13086-0.175781 4.26758-0.585938L5.52734-4.0332L11.2891-4.0332L12.5488-0.585938Q12.6855-0.175781 12.9004-0.00976562Q13.1152 0.15625 13.4961 0.15625Q13.8867 0.15625 14.1162-0.0585938Q14.3457-0.273438 14.3457-0.644531Q14.3457-0.869141 14.2383-1.17188L9.6582-13.3691Q9.48242-13.8184 9.17969-14.043Q8.87695-14.2676 8.4082-14.2676Q7.5-14.2676 7.17773-13.3789L2.59766-1.16211Q2.49023-0.859375 2.49023-0.634766Q2.49023-0.263672 2.70996-0.0537109Q2.92969 0.15625 3.31055 0.15625ZM6.00586-5.51758L8.37891-12.0898L8.42773-12.0898L10.8008-5.51758Z"/>
  </g>
  <line style="fill:none;stroke:#00AEEF;stroke-width:0.5;opacity:1.0;" x1="793.197" x2="793.197" y1="1919" y2="1933"/>
  <text style="stroke:none;fill:black;font-family:sans-serif;font-size:13;font-weight:bold;" transform="matrix(1 0 0 1 776 1953)">Margins</text>
  <text style="stroke:none;fill:black;font-family:sans-serif;font-size:13;" transform="matrix(1 0 0 1 776 1971)">Leading and trailing margins on the left and right side of each symbol</text>
  <text style="stroke:none;fill:black;font-family:sans-serif;font-size:13;" transform="matrix(1 0 0 1 776 1989)">can be adjusted by modifying the x-location of the margin guidelines.</text>
  <text style="stroke:none;fill:black;font-family:sans-serif;font-size:13;" transform="matrix(1 0 0 1 776 2007)">Modifications are automatically applied proportionally to all</text>
  <text style="stroke:none;fill:black;font-family:sans-serif;font-size:13;" transform="matrix(1 0 0 1 776 2025)">scales and weights.</text>
  <g transform="matrix(1 0 0 1 1289 1933)">
   <path d="M2.8418 1.86523L4.54102 3.57422Q5.18555 4.22852 5.90332 4.17969Q6.62109 4.13086 7.31445 3.35938L18.0078-8.42773L17.041-9.4043L6.42578 2.27539Q6.16211 2.57812 5.89355 2.61719Q5.625 2.65625 5.27344 2.30469L4.10156 1.14258Q3.75 0.791016 3.79395 0.522461Q3.83789 0.253906 4.14062-0.0195312L15.6152-10.8203L14.6387-11.7871L3.04688-0.898438Q2.30469-0.214844 2.25098 0.498047Q2.19727 1.21094 2.8418 1.86523ZM9.25781-16.3281Q8.94531-16.0254 8.90625-15.6348Q8.86719-15.2441 9.04297-14.9512Q9.21875-14.6777 9.55566-14.541Q9.89258-14.4043 10.3809-14.5215Q11.4746-14.7754 12.5977-14.7314Q13.7207-14.6875 14.7949-13.9844L14.209-12.5293Q13.9551-11.9043 14.0674-11.4404Q14.1797-10.9766 14.5801-10.5664L16.875-8.25195Q17.2363-7.88086 17.5781-7.82227Q17.9199-7.76367 18.3398-7.8418L19.4043-8.03711L20.0684-7.36328L20.0293-6.80664Q20-6.43555 20.1221-6.12305Q20.2441-5.81055 20.6055-5.44922L21.3672-4.70703Q21.7285-4.3457 22.1533-4.33105Q22.5781-4.31641 22.9297-4.66797L25.8398-7.58789Q26.1914-7.93945 26.1816-8.35449Q26.1719-8.76953 25.8105-9.13086L25.0391-9.89258Q24.6875-10.2539 24.3799-10.3857Q24.0723-10.5176 23.7109-10.4883L23.1348-10.4395L22.4902-11.0742L22.7344-12.1973Q22.832-12.6172 22.6953-12.9834Q22.5586-13.3496 22.1191-13.7891L19.9219-15.9766Q18.6719-17.2168 17.2607-17.8369Q15.8496-18.457 14.4189-18.4814Q12.9883-18.5059 11.665-17.959Q10.3418-17.4121 9.25781-16.3281ZM10.752-15.957Q11.6602-16.6211 12.7002-16.9043Q13.7402-17.1875 14.8047-17.085Q15.8691-16.9824 16.8701-16.5137Q17.8711-16.0449 18.7012-15.2051L21.1328-12.793Q21.3086-12.6172 21.3525-12.4512Q21.3965-12.2852 21.3379-12.0312L21.0156-10.5469L22.5195-9.0625L23.5059-9.12109Q23.6914-9.13086 23.7891-9.09668Q23.8867-9.0625 24.0332-8.91602L24.6094-8.33984L22.168-5.89844L21.5918-6.47461Q21.4453-6.62109 21.4062-6.71875Q21.3672-6.81641 21.377-7.01172L21.4453-7.98828L19.9512-9.47266L18.4277-9.21875Q18.1836-9.16992 18.042-9.2041Q17.9004-9.23828 17.7148-9.41406L15.7129-11.416Q15.5176-11.5918 15.4932-11.7529Q15.4688-11.9141 15.5859-12.1875L16.4648-14.2773Q15.293-15.3711 13.8281-15.791Q12.3633-16.2109 10.8398-15.7617Q10.7227-15.7324 10.6885-15.8057Q10.6543-15.8789 10.752-15.957Z"/>
  </g>
  <text style="stroke:none;fill:black;font-family:sans-serif;font-size:13;font-weight:bold;" transform="matrix(1 0 0 1 1289 1953)">Exporting</text>
  <text style="stroke:none;fill:black;font-family:sans-serif;font-size:13;" transform="matrix(1 0 0 1 1289 1971)">Symbols should be outlined when exporting to ensure the</text>
  <text style="stroke:none;fill:black;font-family:sans-serif;font-size:13;" transform="matrix(1 0 0 1 1289 1989)">design is preserved when submitting to Xcode.</text>
  <text id="template-version" style="stroke:none;fill:black;font-family:sans-serif;font-size:13;text-anchor:end;" transform="matrix(1 0 0 1 3036 1933)">Template v.3.0</text>
  <text style="stroke:none;fill:black;font-family:sans-serif;font-size:13;text-anchor:end;" transform="matrix(1 0 0 1 3036 1951)">Requires Xcode 13 or greater</text>
  <text id="descriptive-name" style="stroke:none;fill:black;font-family:sans-serif;font-size:13;text-anchor:end;" transform="matrix(1 0 0 1 3036 1969)">Generated from person.circle.fill</text>
  <text style="stroke:none;fill:black;font-family:sans-serif;font-size:13;text-anchor:end;" transform="matrix(1 0 0 1 3036 1987)">Typeset at 100 points</text>
  <text style="stroke:none;fill:black;font-family:sans-serif;font-size:13;" transform="matrix(1 0 0 1 263 726)">Small</text>
  <text style="stroke:none;fill:black;font-family:sans-serif;font-size:13;" transform="matrix(1 0 0 1 263 1156)">Medium</text>
  <text style="stroke:none;fill:black;font-family:sans-serif;font-size:13;" transform="matrix(1 0 0 1 263 1586)">Large</text>
 </g>
 <g id="Guides">
  <g id="H-reference" style="fill:#27AAE1;stroke:none;" transform="matrix(1 0 0 1 339 696)">
   <path d="M0.993347 0L3.6377 0L29.3282-67.1326L30.0301-67.1326L30.0301-70.459L28.1227-70.459ZM11.6882-24.4797L46.9818-24.4797L46.2311-26.7288L12.4382-26.7288ZM55.1193 0L57.7637 0L30.6381-70.459L29.4327-70.459L29.4327-67.1326Z"/>
  </g>
  <line id="Baseline-S" style="fill:none;stroke:#27AAE1;opacity:1;stroke-width:0.5;" x1="263" x2="3036" y1="696" y2="696"/>
  <line id="Capline-S" style="fill:none;stroke:#27AAE1;opacity:1;stroke-width:0.5;" x1="263" x2="3036" y1="625.541" y2="625.541"/>
  <g id="H-reference" style="fill:#27AAE1;stroke:none;" transform="matrix(1 0 0 1 339 1126)">
   <path d="M0.993347 0L3.6377 0L29.3282-67.1326L30.0301-67.1326L30.0301-70.459L28.1227-70.459ZM11.6882-24.4797L46.9818-24.4797L46.2311-26.7288L12.4382-26.7288ZM55.1193 0L57.7637 0L30.6381-70.459L29.4327-70.459L29.4327-67.1326Z"/>
  </g>
  <line id="Baseline-M" style="fill:none;stroke:#27AAE1;opacity:1;stroke-width:0.5;" x1="263" x2="3036" y1="1126" y2="1126"/>
  <line id="Capline-M" style="fill:none;stroke:#27AAE1;opacity:1;stroke-width:0.5;" x1="263" x2="3036" y1="1055.54" y2="1055.54"/>
  <g id="H-reference" style="fill:#27AAE1;stroke:none;" transform="matrix(1 0 0 1 339 1556)">
   <path d="M0.993347 0L3.6377 0L29.3282-67.1326L30.0301-67.1326L30.0301-70.459L28.1227-70.459ZM11.6882-24.4797L46.9818-24.4797L46.2311-26.7288L12.4382-26.7288ZM55.1193 0L57.7637 0L30.6381-70.459L29.4327-70.459L29.4327-67.1326Z"/>
  </g>
  <line id="Baseline-L" style="fill:none;stroke:#27AAE1;opacity:1;stroke-width:0.5;" x1="263" x2="3036" y1="1556" y2="1556"/>
  <line id="Capline-L" style="fill:none;stroke:#27AAE1;opacity:1;stroke-width:0.5;" x1="263" x2="3036" y1="1485.54" y2="1485.54"/>
  <line id="left-margin-Regular-M" style="fill:none;stroke:#00AEEF;stroke-width:0.5;opacity:1.0;" x1="1391.32" x2="1391.32" y1="1030.79" y2="1150.12"/>
  <line id="right-margin-Regular-M" style="fill:none;stroke:#00AEEF;stroke-width:0.5;opacity:1.0;" x1="1508.37" x2="1508.37" y1="1030.79" y2="1150.12"/>
 </g>
 <g id="Symbols">
  <g id="Black-L" transform="matrix(1 0 0 1 2854.19 1556)">
   <path d="M79.1953 32.8057Q93.2356 32.8057 105.521 27.5107Q117.806 22.2158 127.174 12.8375Q136.542 3.45916 141.848-8.82607Q147.154-21.1113 147.154-35.1309Q147.154-49.1504 141.848-61.4357Q136.542-73.7209 127.164-83.0992Q117.785-92.4775 105.5-97.7725Q93.2149-103.067 79.1746-103.067Q65.1563-103.067 52.8704-97.7725Q40.5846-92.4775 31.2276-83.0992Q21.8707-73.7209 16.5647-61.4357Q11.2588-49.1504 11.2588-35.1309Q11.2588-21.1113 16.5647-8.82607Q21.8707 3.45916 31.238 12.8375Q40.6053 22.2158 52.8912 27.5107Q65.177 32.8057 79.1953 32.8057ZM52.7652-2.88297Q49.911-2.88297 48.467-4.68377Q47.023-6.48457 47.023-9.00529Q47.023-11.6007 48.8965-15.6793Q50.7701-19.7579 54.6859-23.8365Q58.6016-27.9152 64.6868-30.696Q70.772-33.4769 79.2161-33.4769Q87.6393-33.4769 93.7252-30.696Q99.811-27.9152 103.726-23.8365Q107.641-19.7579 109.515-15.6793Q111.388-11.6007 111.388-9.00529Q111.388-6.48457 109.944-4.68377Q108.5-2.88297 105.646-2.88297ZM79.2161-38.1006Q72.4583-38.1213 67.6344-43.2273Q62.8106-48.3333 62.8106-55.9744Q62.8106-63.1927 67.6344-68.3206Q72.4583-73.4486 79.2161-73.4486Q85.9738-73.4486 90.7873-68.3206Q95.6008-63.1927 95.6008-55.9744Q95.6008-48.3333 90.7873-43.2066Q85.9738-38.0799 79.2161-38.1006Z"/>
  </g>
  <g id="Heavy-L" transform="matrix(1 0 0 1 2558.42 1556)">
   <path d="M78.2511 31.8476Q92.088 31.8476 104.202 26.6268Q116.316 21.406 125.559 12.1482Q134.802 2.89032 140.04-9.2236Q145.279-21.3375 145.279-35.1447Q145.279-48.9518 140.04-61.0657Q134.802-73.1796 125.544-82.4375Q116.286-91.6953 104.172-96.9161Q92.0582-102.137 78.2213-102.137Q64.4202-102.137 52.3033-96.9161Q40.1863-91.6953 30.9613-82.4375Q21.7362-73.1796 16.4975-61.0657Q11.2588-48.9518 11.2588-35.1447Q11.2588-21.3375 16.4975-9.2236Q21.7362 2.89032 30.9761 12.1482Q40.2161 21.406 52.333 26.6268Q64.45 31.8476 78.2511 31.8476ZM51.0476-2.72324Q48.4253-2.72324 47.1158-4.35724Q45.8063-5.99125 45.8063-8.33092Q45.8063-10.9402 47.714-15.0627Q49.6218-19.1853 53.5878-23.3078Q57.5537-27.4304 63.682-30.2483Q69.8102-33.0663 78.2808-33.0663Q86.7217-33.0663 92.853-30.2483Q98.9842-27.4304 102.947-23.3078Q106.91-19.1853 108.818-15.0627Q110.726-10.9402 110.726-8.33092Q110.726-5.99125 109.416-4.35724Q108.107-2.72324 105.484-2.72324ZM78.2808-37.8502Q71.4869-37.8799 66.6545-42.9969Q61.8221-48.1138 61.8221-55.7863Q61.8221-63.0269 66.6545-68.1796Q71.4869-73.3323 78.2808-73.3323Q85.0747-73.3323 89.8923-68.1796Q94.7098-63.0269 94.7098-55.7863Q94.7098-48.1138 89.8923-42.9671Q85.0747-37.8204 78.2808-37.8502Z"/>
  </g>
  <g id="Bold-L" transform="matrix(1 0 0 1 2262.89 1556)">
   <path d="M77.0653 30.6464Q90.6516 30.6464 102.549 25.52Q114.447 20.3937 123.533 11.2893Q132.619 2.1849 137.771-9.71291Q142.923-21.6107 142.923-35.1601Q142.923-48.7094 137.771-60.6072Q132.619-72.5051 123.515-81.6094Q114.41-90.7138 102.512-95.8402Q90.6146-100.967 77.0283-100.967Q63.4932-100.967 51.5882-95.8402Q39.6833-90.7138 30.623-81.6094Q21.5627-72.5051 16.4108-60.6072Q11.2588-48.7094 11.2588-35.1601Q11.2588-21.6107 16.4108-9.71291Q21.5627 2.1849 30.6415 11.2893Q39.7203 20.3937 51.6252 25.52Q63.5301 30.6464 77.0653 30.6464ZM48.9709-2.5647Q46.6483-2.5647 45.5122-3.98622Q44.3761-5.40773 44.3761-7.51034Q44.3761-10.135 46.3179-14.3125Q48.2597-18.49 52.2745-22.6675Q56.2894-26.845 62.4542-29.7101Q68.6191-32.5753 77.1023-32.5753Q85.5484-32.5753 91.7204-29.7101Q97.8924-26.845 101.9-22.6675Q105.908-18.49 107.85-14.3125Q109.791-10.135 109.791-7.51034Q109.791-5.40773 108.655-3.98622Q107.519-2.5647 105.197-2.5647ZM77.1023-37.5269Q70.2794-37.5639 65.4489-42.683Q60.6184-47.8021 60.6184-55.4953Q60.6184-62.7494 65.4489-67.9197Q70.2794-73.09 77.1023-73.09Q83.9251-73.09 88.7371-67.9197Q93.5491-62.7494 93.5491-55.4953Q93.5491-47.8021 88.7371-42.646Q83.9251-37.4899 77.1023-37.5269Z"/>
  </g>
  <g id="Semibold-L" transform="matrix(1 0 0 1 1966.99 1556)">
   <path d="M76.2478 29.8183Q89.6614 29.8183 101.41 24.757Q113.159 19.6958 122.137 10.6972Q131.114 1.6986 136.206-10.0502Q141.299-21.7991 141.299-35.1707Q141.299-48.5423 136.206-60.2912Q131.114-72.04 122.116-81.0386Q113.117-90.0372 101.368-95.0984Q89.6194-100.16 76.2058-100.16Q62.854-100.16 51.0953-95.0984Q39.3365-90.0372 30.3898-81.0386Q21.4432-72.04 16.351-60.2912Q11.2588-48.5423 11.2588-35.1707Q11.2588-21.7991 16.351-10.0502Q21.4432 1.6986 30.4108 10.6972Q39.3785 19.6958 51.1372 24.757Q62.896 29.8183 76.2478 29.8183ZM47.5392-2.45541Q45.4232-2.45541 44.4067-3.73043Q43.3902-5.00546 43.3902-6.94464Q43.3902-9.57993 45.3554-13.7953Q47.3206-18.0106 51.3692-22.226Q55.4177-26.4414 61.6078-29.3391Q67.7979-32.2368 76.2898-32.2368Q84.7396-32.2368 90.9396-29.3391Q97.1397-26.4414 101.178-22.226Q105.217-18.0106 107.182-13.7953Q109.147-9.57993 109.147-6.94464Q109.147-5.00546 108.131-3.73043Q107.114-2.45541 104.998-2.45541ZM76.2898-37.304Q69.447-37.346 64.6178-42.4666Q59.7886-47.5871 59.7886-55.2946Q59.7886-62.5581 64.6178-67.7405Q69.447-72.9229 76.2898-72.9229Q83.1325-72.9229 87.9407-67.7405Q92.7489-62.5581 92.7489-55.2946Q92.7489-47.5871 87.9407-42.4246Q83.1325-37.262 76.2898-37.304Z"/>
  </g>
  <g id="Medium-L" transform="matrix(1 0 0 1 1670.9 1556)">
   <path d="M75.6279 29.1904Q88.9106 29.1904 100.546 24.1785Q112.182 19.1666 121.078 10.2482Q129.973 1.32986 135.02-10.306Q140.067-21.9419 140.067-35.1788Q140.067-48.4156 135.02-60.0515Q129.973-71.6874 121.055-80.6058Q112.137-89.5241 100.501-94.536Q88.8648-99.5479 75.5822-99.5479Q62.3695-99.5479 50.7215-94.536Q39.0736-89.5241 30.213-80.6058Q21.3525-71.6874 16.3056-60.0515Q11.2588-48.4156 11.2588-35.1788Q11.2588-21.9419 16.3056-10.306Q21.3525 1.32986 30.2359 10.2482Q39.1193 19.1666 50.7673 24.1785Q62.4152 29.1904 75.6279 29.1904ZM46.4536-2.37254Q44.4943-2.37254 43.5685-3.53649Q42.6427-4.70044 42.6427-6.51571Q42.6427-9.15905 44.6256-13.4031Q46.6085-17.6472 50.6827-21.8913Q54.7568-26.1353 60.9661-29.0577Q67.1753-31.9801 75.6737-31.9801Q84.1263-31.9801 90.3476-29.0577Q96.569-26.1353 100.631-21.8913Q104.693-17.6472 106.676-13.4031Q108.659-9.15905 108.659-6.51571Q108.659-4.70044 107.733-3.53649Q106.807-2.37254 104.848-2.37254ZM75.6737-37.135Q68.8158-37.1807 63.9876-42.3025Q59.1595-47.4242 59.1595-55.1425Q59.1595-62.413 63.9876-67.6046Q68.8158-72.7963 75.6737-72.7963Q82.5315-72.7963 87.3369-67.6046Q92.1422-62.413 92.1422-55.1425Q92.1422-47.4242 87.3369-42.2567Q82.5315-37.0892 75.6737-37.135Z"/>
  </g>
  <g id="Regular-L" transform="matrix(1 0 0 1 1374.99 1556)">
   <path d="M74.8194 28.3714Q87.9312 28.3714 99.4198 23.4239Q110.908 18.4764 119.697 9.66263Q128.485 0.848896 133.473-10.6396Q138.46-22.1282 138.46-35.1893Q138.46-48.2504 133.473-59.7389Q128.485-71.2275 119.671-80.0412Q110.858-88.8549 99.3691-93.8024Q87.8805-98.7499 74.7687-98.7499Q61.7374-98.7499 50.234-93.8024Q38.7306-88.8549 29.9824-80.0412Q21.2342-71.2275 16.2465-59.7389Q11.2588-48.2504 11.2588-35.1893Q11.2588-22.1282 16.2465-10.6396Q21.2342 0.848896 30.0077 9.66263Q38.7813 18.4764 50.2847 23.4239Q61.7881 28.3714 74.8194 28.3714ZM45.0377-2.26444Q43.2827-2.26444 42.4751-3.28352Q41.6676-4.30259 41.6676-5.95622Q41.6676-8.61008 43.6737-12.8916Q45.6798-17.1731 49.7873-21.4546Q53.8948-25.7362 60.129-28.6908Q66.3632-31.6454 74.8701-31.6454Q83.3263-31.6454 89.5754-28.6908Q95.8245-25.7362 99.9171-21.4546Q104.01-17.1731 106.016-12.8916Q108.022-8.61008 108.022-5.95622Q108.022-4.30259 107.214-3.28352Q106.407-2.26444 104.652-2.26444ZM74.8701-36.9145Q67.9925-36.9652 63.1657-42.0884Q58.3388-47.2116 58.3388-54.9441Q58.3388-62.2238 63.1657-67.4274Q67.9925-72.631 74.8701-72.631Q81.7477-72.631 86.5492-67.4274Q91.3508-62.2238 91.3508-54.9441Q91.3508-47.2116 86.5492-42.0378Q81.7477-36.8639 74.8701-36.9145Z"/>
  </g>
  <g id="Light-L" transform="matrix(1 0 0 1 1079.2 1556)">
   <path d="M73.8959 27.4479Q86.8436 27.4479 98.1577 22.5825Q109.472 17.717 118.137 9.03671Q126.802 0.356369 131.708-10.9577Q136.614-22.2718 136.614-35.1893Q136.614-48.1067 131.708-59.4208Q126.802-70.7349 118.122-79.4153Q109.442-88.0956 98.1275-92.961Q86.8134-97.8264 73.8658-97.8264Q60.9986-97.8264 49.6594-92.961Q38.3201-88.0956 29.6951-79.4153Q21.07-70.7349 16.1644-59.4208Q11.2588-48.1067 11.2588-35.1893Q11.2588-22.2718 16.1644-10.9577Q21.07 0.356369 29.7102 9.03671Q38.3503 17.717 49.6895 22.5825Q61.0287 27.4479 73.8959 27.4479ZM43.9295-2.4081Q42.4618-2.4081 41.8184-3.24247Q41.175-4.07685 41.175-5.48422Q41.175-8.13807 43.1504-12.4606Q45.1257-16.7832 49.1819-21.1058Q53.238-25.4283 59.3902-28.424Q65.5423-31.4196 73.9261-31.4196Q82.2797-31.4196 88.457-28.424Q94.6343-25.4283 98.6653-21.1058Q102.696-16.7832 104.672-12.4606Q106.647-8.13807 106.647-5.48422Q106.647-4.07685 106.004-3.24247Q105.36-2.4081 103.893-2.4081ZM73.9261-36.6067Q67.1306-36.6369 62.3858-41.6883Q57.641-46.7396 57.641-54.3695Q57.641-61.5671 62.3858-66.6989Q67.1306-71.8307 73.9261-71.8307Q80.7216-71.8307 85.4513-66.6989Q90.181-61.5671 90.181-54.3695Q90.181-46.7396 85.4513-41.6581Q80.7216-36.5766 73.9261-36.6067Z"/>
  </g>
  <g id="Thin-L" transform="matrix(1 0 0 1 783.716 1556)">
   <path d="M72.6746 26.2265Q85.405 26.2265 96.4884 21.4696Q107.572 16.7128 116.074 8.20888Q124.577-0.295038 129.374-11.3784Q134.171-22.4618 134.171-35.1893Q134.171-47.9168 129.374-59.0001Q124.577-70.0835 116.073-78.5874Q107.569-87.0914 96.4854-91.8482Q85.402-96.605 72.6715-96.605Q60.0215-96.605 48.8994-91.8482Q37.7773-87.0914 29.3151-78.5874Q20.8529-70.0835 16.0558-59.0001Q11.2588-47.9168 11.2588-35.1893Q11.2588-22.4618 16.0558-11.3784Q20.8529-0.295038 29.3166 8.20888Q37.7803 16.7128 48.9024 21.4696Q60.0245 26.2265 72.6746 26.2265ZM42.4638-2.59809Q41.3761-2.59809 40.9499-3.18819Q40.5236-3.77828 40.5236-4.85995Q40.5236-7.51381 42.4582-11.8907Q44.3928-16.2675 48.3812-20.6444Q52.3695-25.0212 58.4131-28.0711Q64.4566-31.1211 72.6776-31.1211Q80.8955-31.1211 86.9778-28.0711Q93.06-25.0212 97.0096-20.6444Q100.959-16.2675 102.894-11.8907Q104.828-7.51381 104.828-4.85995Q104.828-3.77828 104.402-3.18819Q103.976-2.59809 102.888-2.59809ZM72.6776-36.1996Q65.9906-36.2026 61.3544-41.159Q56.7182-46.1154 56.7182-53.6095Q56.7182-60.6985 61.3544-65.7353Q65.9906-70.7721 72.6776-70.7721Q79.3645-70.7721 83.9992-65.7353Q88.6339-60.6985 88.6339-53.6095Q88.6339-46.1154 83.9992-41.156Q79.3645-36.1966 72.6776-36.1996Z"/>
  </g>
  <g id="Ultralight-L" transform="matrix(1 0 0 1 487.631 1556)">
   <path d="M72.049 25.6009Q84.6682 25.6009 95.6335 20.8997Q106.599 16.1984 115.018 7.78487Q123.437-0.628686 128.178-11.5939Q132.92-22.5591 132.92-35.1893Q132.92-47.8194 128.178-58.7847Q123.437-69.7499 115.023-78.1634Q106.61-86.577 95.6443-91.2782Q84.6791-95.9795 72.0598-95.9795Q59.521-95.9795 48.5101-91.2782Q37.4993-86.577 29.1205-78.1634Q20.7417-69.7499 16.0002-58.7847Q11.2588-47.8194 11.2588-35.1893Q11.2588-22.5591 16.0002-11.5939Q20.7417-0.628686 29.115 7.78487Q37.4884 16.1984 48.4992 20.8997Q59.5101 25.6009 72.049 25.6009ZM41.7131-2.69541Q40.82-2.69541 40.505-3.16038Q40.19-3.62536 40.19-4.54021Q40.19-7.19406 42.1037-11.5987Q44.0175-16.0034 47.9711-20.408Q51.9246-24.8127 57.9126-27.8904Q63.9006-30.9681 72.0381-30.9681Q80.1865-30.9681 86.2201-27.8904Q92.2537-24.8127 96.1616-20.408Q100.07-16.0034 101.983-11.5987Q103.897-7.19406 103.897-4.54021Q103.897-3.62536 103.582-3.16038Q103.267-2.69541 102.374-2.69541ZM72.0381-35.9911Q65.4068-35.9802 60.8262-40.8879Q56.2455-45.7956 56.2455-53.2203Q56.2455-60.2537 60.8262-65.2418Q65.4068-70.23 72.0381-70.23Q78.6694-70.23 83.2554-65.2418Q87.8415-60.2537 87.8415-53.2203Q87.8415-45.7956 83.2554-40.8988Q78.6694-36.0019 72.0381-35.9911Z"/>
  </g>
  <g id="Black-M" transform="matrix(1 0 0 1 2871.36 1126)">
   <path d="M62.0423 18.1784Q73.0725 18.1784 82.714 14.0236Q92.3555 9.86885 99.704 2.51762Q107.052-4.83361 111.21-14.4751Q115.367-24.1166 115.367-35.1412Q115.367-46.1659 111.21-55.8074Q107.052-65.4489 99.7012-72.8001Q92.35-80.1513 82.7085-84.3061Q73.067-88.4609 62.0368-88.4609Q51.0119-88.4609 41.3705-84.3061Q31.7292-80.1513 24.3833-72.8001Q17.0375-65.4489 12.8801-55.8074Q8.72266-46.1659 8.72266-35.1412Q8.72266-24.1166 12.8801-14.4751Q17.0375-4.83361 24.3861 2.51762Q31.7347 9.86885 41.376 14.0236Q51.0174 18.1784 62.0423 18.1784ZM42.2054-10.326Q39.8337-10.326 38.6217-11.8395Q37.4096-13.353 37.4096-15.4281Q37.4096-17.4271 38.8275-20.5547Q40.2455-23.6824 43.2291-26.81Q46.2128-29.9377 50.8792-32.0658Q55.5455-34.194 62.0479-34.194Q68.5447-34.194 73.2109-32.0658Q77.8771-29.9377 80.8609-26.81Q83.8447-23.6824 85.2627-20.5547Q86.6806-17.4271 86.6806-15.4281Q86.6806-13.353 85.4685-11.8395Q84.2565-10.326 81.8848-10.326ZM62.0479-37.6274Q56.8545-37.6329 53.1358-41.5696Q49.417-45.5063 49.417-51.3852Q49.417-56.9472 53.1358-60.8891Q56.8545-64.831 62.0479-64.831Q67.2412-64.831 70.9572-60.8891Q74.6732-56.9472 74.6732-51.3852Q74.6732-45.5063 70.9572-41.5641Q67.2412-37.6219 62.0479-37.6274Z"/>
  </g>
  <g id="Heavy-M" transform="matrix(1 0 0 1 2575.48 1126)">
   <path d="M61.2045 17.3271Q72.0509 17.3271 81.541 13.2372Q91.0312 9.14728 98.2688 1.90151Q105.506-5.34426 109.606-14.8344Q113.705-24.3245 113.705-35.1547Q113.705-45.985 109.606-55.4751Q105.506-64.9652 98.2607-72.2109Q91.0149-79.4567 81.5248-83.5466Q72.0347-87.6365 61.1882-87.6365Q50.3604-87.6365 40.8691-83.5466Q31.3778-79.4567 24.1495-72.2109Q16.9211-64.9652 12.8219-55.4751Q8.72266-45.985 8.72266-35.1547Q8.72266-24.3245 12.8219-14.8344Q16.9211-5.34426 24.1576 1.90151Q31.394 9.14728 40.8853 13.2372Q50.3767 17.3271 61.2045 17.3271ZM40.6286-10.1566Q38.4571-10.1566 37.3614-11.5241Q36.2656-12.8916 36.2656-14.8124Q36.2656-16.8249 37.7199-19.9917Q39.1741-23.1585 42.2115-26.3254Q45.249-29.4922 49.965-31.6528Q54.6809-33.8134 61.2207-33.8134Q67.7442-33.8134 72.4614-31.6528Q77.1786-29.4922 80.2149-26.3254Q83.2511-23.1585 84.7053-19.9917Q86.1595-16.8249 86.1595-14.8124Q86.1595-12.8916 85.0638-11.5241Q83.968-10.1566 81.7966-10.1566ZM61.2207-37.411Q55.9845-37.4272 52.2497-41.3812Q48.515-45.3352 48.515-51.2544Q48.515-56.8458 52.2497-60.8184Q55.9845-64.7911 61.2207-64.7911Q66.4569-64.7911 70.1835-60.8184Q73.9101-56.8458 73.9101-51.2544Q73.9101-45.3352 70.1835-41.365Q66.4569-37.3947 61.2207-37.411Z"/>
  </g>
  <g id="Bold-M" transform="matrix(1 0 0 1 2279.69 1126)">
   <path d="M60.2672 16.3747Q70.9082 16.3747 80.2289 12.3574Q89.5497 8.34011 96.6634 1.21231Q103.777-5.9155 107.811-15.2363Q111.845-24.557 111.845-35.1698Q111.845-45.7825 107.811-55.1033Q103.777-64.4241 96.6493-71.5519Q89.5215-78.6797 80.2007-82.697Q70.8799-86.7143 60.2389-86.7143Q49.6317-86.7143 40.3082-82.697Q30.9846-78.6797 23.8878-71.5519Q16.791-64.4241 12.7568-55.1033Q8.72266-45.7825 8.72266-35.1698Q8.72266-24.557 12.7568-15.2363Q16.791-5.9155 23.902 1.21231Q31.0129 8.34011 40.3364 12.3574Q49.6599 16.3747 60.2672 16.3747ZM38.8647-9.96713Q36.9172-9.96713 35.9516-11.1713Q34.9859-12.3754 34.9859-14.1237Q34.9859-16.1512 36.4808-19.3619Q37.9756-22.5725 41.0732-25.7832Q44.1708-28.9939 48.9423-31.1908Q53.7138-33.3877 60.2954-33.3877Q66.8488-33.3877 71.623-31.1908Q76.3973-28.9939 79.4921-25.7832Q82.587-22.5725 84.0818-19.3619Q85.5766-16.1512 85.5766-14.1237Q85.5766-12.3754 84.611-11.1713Q83.6454-9.96713 81.6979-9.96713ZM60.2954-37.1689Q55.0112-37.1971 51.2586-41.1705Q47.5061-45.1439 47.5061-51.108Q47.5061-56.7323 51.2586-60.7394Q55.0112-64.7466 60.2954-64.7466Q65.5796-64.7466 69.3181-60.7394Q73.0565-56.7323 73.0565-51.108Q73.0565-45.1439 69.3181-41.1423Q65.5796-37.1406 60.2954-37.1689Z"/>
  </g>
  <g id="Semibold-M" transform="matrix(1 0 0 1 1983.62 1126)">
   <path d="M59.621 15.7182Q70.1203 15.7182 79.3244 11.7509Q88.5284 7.78365 95.5566 0.737173Q102.585-6.30931 106.574-15.5133Q110.564-24.7174 110.564-35.1802Q110.564-45.643 106.574-54.847Q102.585-64.0511 95.5384-71.0975Q88.4919-78.144 79.2879-82.1113Q70.0838-86.0785 59.5845-86.0785Q49.1293-86.0785 39.9215-82.1113Q30.7136-78.144 23.7075-71.0975Q16.7013-64.0511 12.712-54.847Q8.72266-45.643 8.72266-35.1802Q8.72266-24.7174 12.712-15.5133Q16.7013-6.30931 23.7257 0.737173Q30.7501 7.78365 39.958 11.7509Q49.1658 15.7182 59.621 15.7182ZM37.6487-9.83649Q35.8556-9.83649 34.9797-10.928Q34.1037-12.0195 34.1037-13.6489Q34.1037-15.6868 35.6266-18.9276Q37.1494-22.1685 40.2884-25.4094Q43.4275-28.6503 48.2373-30.8722Q53.0471-33.0942 59.6575-33.0942Q66.2314-33.0942 71.0451-30.8722Q75.8587-28.6503 78.9939-25.4094Q82.1291-22.1685 83.652-18.9276Q85.1748-15.6868 85.1748-13.6489Q85.1748-12.0195 84.2989-10.928Q83.4229-9.83649 81.6298-9.83649ZM59.6575-37.002Q54.3402-37.0385 50.5753-41.0252Q46.8105-45.012 46.8105-51.007Q46.8105-56.654 50.5753-60.6849Q54.3402-64.7158 59.6575-64.7158Q64.9748-64.7158 68.7214-60.6849Q72.4681-56.654 72.4681-51.007Q72.4681-45.012 68.7214-40.9887Q64.9748-36.9655 59.6575-37.002Z"/>
  </g>
  <g id="Medium-M" transform="matrix(1 0 0 1 1687.4 1126)">
   <path d="M59.1311 15.2203Q69.523 15.2203 78.6385 11.291Q87.754 7.36172 94.7174 0.376908Q101.681-6.60791 105.636-15.7234Q109.591-24.8389 109.591-35.1881Q109.591-45.5372 105.636-54.6527Q101.681-63.7682 94.696-70.753Q87.7112-77.7378 78.5957-81.6672Q69.4802-85.5965 59.0883-85.5965Q48.7484-85.5965 39.6283-81.6672Q30.5081-77.7378 23.5707-70.753Q16.6333-63.7682 12.678-54.6527Q8.72266-45.5372 8.72266-35.1881Q8.72266-24.8389 12.678-15.7234Q16.6333-6.60791 23.5921 0.376908Q30.5509 7.36172 39.671 11.291Q48.7912 15.2203 59.1311 15.2203ZM36.7267-9.73743Q35.0506-9.73743 34.2427-10.7436Q33.4348-11.7497 33.4348-13.2888Q33.4348-15.3346 34.9789-18.5984Q36.5229-21.8622 39.6934-25.126Q42.8639-28.3898 47.7027-30.6307Q52.5415-32.8716 59.1738-32.8716Q65.7634-32.8716 70.6068-30.6307Q75.4503-28.3898 78.6161-25.126Q81.782-21.8622 83.326-18.5984Q84.8701-15.3346 84.8701-13.2888Q84.8701-11.7497 84.0622-10.7436Q83.2543-9.73743 81.5782-9.73743ZM59.1738-36.8754Q53.8314-36.9182 50.0572-40.9151Q46.2831-44.912 46.2831-50.9305Q46.2831-56.5947 50.0572-60.6436Q53.8314-64.6925 59.1738-64.6925Q64.5162-64.6925 68.269-60.6436Q72.0218-56.5947 72.0218-50.9305Q72.0218-44.912 68.269-40.8723Q64.5162-36.8327 59.1738-36.8754Z"/>
  </g>
  <g id="Regular-M" transform="matrix(1 0 0 1 1391.32 1126)">
   <path d="M58.492 14.571Q68.7438 14.571 77.7439 10.6912Q86.7439 6.81138 93.6228-0.093004Q100.502-6.99738 104.413-15.9974Q108.324-24.9975 108.324-35.1983Q108.324-45.3992 104.413-54.3992Q100.502-63.3993 93.5973-70.3037Q86.693-77.2081 77.6929-81.0879Q68.6929-84.9677 58.441-84.9677Q48.2515-84.9677 39.2458-81.0879Q30.2401-77.2081 23.3923-70.3037Q16.5446-63.3993 12.6336-54.3992Q8.72266-45.3992 8.72266-35.1983Q8.72266-24.9975 12.6336-15.9974Q16.5446-6.99738 23.4178-0.093004Q30.291 6.81138 39.2968 10.6912Q48.3025 14.571 58.492 14.571ZM35.5241-9.60823Q34.0007-9.60823 33.2815-10.503Q32.5623-11.3978 32.5623-12.8192Q32.5623-14.8753 34.134-18.169Q35.7058-21.4627 38.9173-24.7563Q42.1287-28.05 47.0054-30.3157Q51.8821-32.5814 58.543-32.5814Q65.1528-32.5814 70.0352-30.3157Q74.9176-28.05 78.1234-24.7563Q81.3292-21.4627 82.9009-18.169Q84.4727-14.8753 84.4727-12.8192Q84.4727-11.3978 83.7535-10.503Q83.0343-9.60823 81.5109-9.60823ZM58.543-36.7104Q53.1678-36.7613 49.3815-40.7714Q45.5951-44.7815 45.5951-50.8307Q45.5951-56.5173 49.3815-60.5897Q53.1678-64.6621 58.543-64.6621Q63.9181-64.6621 67.679-60.5897Q71.4398-56.5173 71.4398-50.8307Q71.4398-44.7815 67.679-40.7205Q63.9181-36.6594 58.543-36.7104Z"/>
  </g>
  <g id="Light-M" transform="matrix(1 0 0 1 1095.44 1126)">
   <path d="M57.664 13.743Q67.7687 13.743 76.6123 9.93683Q85.456 6.13061 92.2245-0.654174Q98.993-7.43896 102.83-16.2826Q106.668-25.1263 106.668-35.1983Q106.668-45.2704 102.83-54.1141Q98.993-62.9577 92.2082-69.7425Q85.4234-76.5273 76.5798-80.3335Q67.7361-84.1397 57.6315-84.1397Q47.5892-84.1397 38.7306-80.3335Q29.8721-76.5273 23.1348-69.7425Q16.3974-62.9577 12.56-54.1141Q8.72266-45.2704 8.72266-35.1983Q8.72266-25.1263 12.56-16.2826Q16.3974-7.43896 23.151-0.654174Q29.9047 6.13061 38.7632 9.93683Q47.6217 13.743 57.664 13.743ZM34.5305-9.73702Q33.2647-9.73702 32.6927-10.4662Q32.1207-11.1954 32.1207-12.3961Q32.1207-14.4521 33.6649-17.7826Q35.209-21.1131 38.3745-24.4436Q41.54-27.7741 46.3431-30.0765Q51.1462-32.379 57.6966-32.379Q64.2145-32.379 69.0325-30.0765Q73.8504-27.7741 77.001-24.4436Q80.1516-21.1131 81.6958-17.7826Q83.2399-14.4521 83.2399-12.3961Q83.2399-11.1954 82.6679-10.4662Q82.0959-9.73702 80.8301-9.73702ZM57.6966-36.4344Q52.3951-36.467 48.6823-40.4127Q44.9696-44.3584 44.9696-50.3155Q44.9696-55.9286 48.6823-59.9366Q52.3951-63.9446 57.6966-63.9446Q62.9981-63.9446 66.6946-59.9366Q70.3911-55.9286 70.3911-50.3155Q70.3911-44.3584 66.6946-40.3801Q62.9981-36.4018 57.6966-36.4344Z"/>
  </g>
  <g id="Thin-M" transform="matrix(1 0 0 1 799.828 1126)">
   <path d="M56.569 12.648Q66.479 12.648 75.1158 8.93913Q83.7526 5.23025 90.3751-1.39637Q96.9976-8.02298 100.738-16.6598Q104.478-25.2966 104.478-35.1983Q104.478-45.1001 100.738-53.7369Q96.9976-62.3737 90.371-69.0003Q83.7444-75.6269 75.1076-79.3358Q66.4707-83.0447 56.5608-83.0447Q46.7131-83.0447 38.0493-79.3358Q29.3854-75.6269 22.7941-69.0003Q16.2027-62.3737 12.4627-53.7369Q8.72266-45.1001 8.72266-35.1983Q8.72266-25.2966 12.4627-16.6598Q16.2027-8.02298 22.7982-1.39637Q29.3936 5.23025 38.0575 8.93913Q46.7214 12.648 56.569 12.648ZM33.2165-9.90736Q32.2914-9.90736 31.914-10.4175Q31.5367-10.9277 31.5367-11.8364Q31.5367-13.8924 33.0443-17.2716Q34.552-20.6507 37.6566-24.0299Q40.7613-27.409 45.467-29.7602Q50.1728-32.1113 56.5772-32.1113Q62.9734-32.1113 67.7062-29.7602Q72.439-27.409 75.5166-24.0299Q78.5943-20.6507 80.1019-17.2716Q81.6096-13.8924 81.6096-11.8364Q81.6096-10.9277 81.2322-10.4175Q80.8549-9.90736 79.9298-9.90736ZM56.5772-36.0694Q51.373-36.0776 47.7576-39.9381Q44.1422-43.7987 44.1422-49.6341Q44.1422-55.1499 47.7576-59.0727Q51.373-62.9955 56.5772-62.9955Q61.7814-62.9955 65.3927-59.0727Q69.0041-55.1499 69.0041-49.6341Q69.0041-43.7987 65.3927-39.9299Q61.7814-36.0612 56.5772-36.0694Z"/>
  </g>
  <g id="Ultralight-M" transform="matrix(1 0 0 1 503.679 1126)">
   <path d="M56.0081 12.0871Q65.8184 12.0871 74.3492 8.42811Q82.8801 4.76909 89.4278-1.77651Q95.9756-8.32211 99.6657-16.853Q103.356-25.3839 103.356-35.1983Q103.356-45.0128 99.6657-53.5437Q95.9756-62.0746 89.43-68.6202Q82.8844-75.1658 74.3535-78.8248Q65.8226-82.4838 56.0124-82.4838Q46.2644-82.4838 37.7003-78.8248Q29.1361-75.1658 22.6196-68.6202Q16.103-62.0746 12.4128-53.5437Q8.72266-45.0128 8.72266-35.1983Q8.72266-25.3839 12.4128-16.853Q16.103-8.32211 22.6175-1.77651Q29.1319 4.76909 37.6961 8.42811Q46.2602 12.0871 56.0081 12.0871ZM32.5434-9.9946Q31.7928-9.9946 31.5152-10.3926Q31.2376-10.7906 31.2376-11.5497Q31.2376-13.6058 32.7265-17.0098Q34.2155-20.4139 37.289-23.818Q40.3624-27.2221 45.0183-29.5981Q49.6742-31.9742 56.0039-31.9742Q62.3378-31.9742 67.027-29.5981Q71.7161-27.2221 74.7563-23.818Q77.7966-20.4139 79.2855-17.0098Q80.7745-13.6058 80.7745-11.5497Q80.7745-10.7906 80.4969-10.3926Q80.2192-9.9946 79.4686-9.9946ZM56.0039-35.8824Q50.8496-35.8782 47.284-39.6951Q43.7184-43.512 43.7184-49.2852Q43.7184-54.751 47.284-58.6302Q50.8496-62.5094 56.0039-62.5094Q61.1582-62.5094 64.7259-58.6302Q68.2936-54.751 68.2936-49.2852Q68.2936-43.512 64.7259-39.6993Q61.1582-35.8867 56.0039-35.8824Z"/>
  </g>
  <g id="Black-S" transform="matrix(1 0 0 1 2884.57 696)">
   <path d="M48.8281 6.83594Q57.5195 6.83594 65.1123 3.56445Q72.7051 0.292969 78.4912-5.49316Q84.2773-11.2793 87.5488-18.8721Q90.8203-26.4648 90.8203-35.1562Q90.8203-43.8477 87.5488-51.4404Q84.2773-59.0332 78.4912-64.8193Q72.7051-70.6055 65.1123-73.877Q57.5195-77.1484 48.8281-77.1484Q40.1367-77.1484 32.5439-73.877Q24.9512-70.6055 19.165-64.8193Q13.3789-59.0332 10.1074-51.4404Q6.83594-43.8477 6.83594-35.1562Q6.83594-26.4648 10.1074-18.8721Q13.3789-11.2793 19.165-5.49316Q24.9512 0.292969 32.5439 3.56445Q40.1367 6.83594 48.8281 6.83594ZM33.4961-15.7715Q31.5918-15.7715 30.6152-16.9922Q29.6387-18.2129 29.6387-19.873Q29.6387-21.4355 30.7373-23.877Q31.8359-26.3184 34.1553-28.7598Q36.4746-31.2012 40.1123-32.8613Q43.75-34.5215 48.8281-34.5215Q53.9062-34.5215 57.5439-32.8613Q61.1816-31.2012 63.501-28.7598Q65.8203-26.3184 66.9189-23.877Q68.0176-21.4355 68.0176-19.873Q68.0176-18.2129 67.041-16.9922Q66.0645-15.7715 64.1602-15.7715ZM48.8281-37.1582Q44.7754-37.1582 41.8701-40.2344Q38.9648-43.3105 38.9648-47.9004Q38.9648-52.2461 41.8701-55.3223Q44.7754-58.3984 48.8281-58.3984Q52.8809-58.3984 55.7861-55.3223Q58.6914-52.2461 58.6914-47.9004Q58.6914-43.3105 55.7861-40.2344Q52.8809-37.1582 48.8281-37.1582Z"/>
  </g>
  <g id="Heavy-S" transform="matrix(1 0 0 1 2588.47 696)">
   <path d="M48.2173 6.21362Q56.7704 6.21362 64.2537 2.98823Q71.737-0.237157 77.4425-5.94838Q83.1479-11.6596 86.3791-19.1429Q89.6102-26.6262 89.6102-35.1678Q89.6102-43.7094 86.3791-51.1927Q83.1479-58.6759 77.4367-64.3872Q71.7255-70.0984 64.2422-73.3238Q56.7589-76.5492 48.2058-76.5492Q39.6642-76.5492 32.1809-73.3238Q24.6976-70.0984 18.9979-64.3872Q13.2982-58.6759 10.0671-51.1927Q6.83594-43.7094 6.83594-35.1678Q6.83594-26.6262 10.0671-19.1429Q13.2982-11.6596 19.0037-5.94838Q24.7092-0.237157 32.1924 2.98823Q39.6757 6.21362 48.2173 6.21362ZM32.2745-15.6101Q30.5085-15.6101 29.6126-16.7271Q28.7167-17.8441 28.7167-19.4005Q28.7167-20.9746 29.8499-23.4448Q30.9831-25.915 33.3543-28.3852Q35.7255-30.8554 39.4151-32.5386Q43.1046-34.2218 48.2289-34.2218Q53.3416-34.2218 57.0311-32.5386Q60.7207-30.8554 63.0919-28.3852Q65.4631-25.915 66.5963-23.4448Q67.7295-20.9746 67.7295-19.4005Q67.7295-17.8441 66.8336-16.7271Q65.9377-15.6101 64.1717-15.6101ZM48.2289-37.0084Q44.13-37.0199 41.2017-40.1191Q38.2734-43.2184 38.2734-47.8543Q38.2734-52.2346 41.2017-55.3453Q44.13-58.4561 48.2289-58.4561Q52.3277-58.4561 55.2502-55.3453Q58.1728-52.2346 58.1728-47.8543Q58.1728-43.2184 55.2502-40.1076Q52.3277-36.9969 48.2289-37.0084Z"/>
  </g>
  <g id="Bold-S" transform="matrix(1 0 0 1 2292.43 696)">
   <path d="M47.5342 5.51758Q55.9326 5.51758 63.2935 2.34375Q70.6543-0.830078 76.2695-6.45752Q81.8848-12.085 85.0708-19.4458Q88.2568-26.8066 88.2568-35.1807Q88.2568-43.5547 85.0708-50.9155Q81.8848-58.2764 76.2573-63.9038Q70.6299-69.5312 63.269-72.7051Q55.9082-75.8789 47.5098-75.8789Q39.1357-75.8789 31.7749-72.7051Q24.4141-69.5312 18.811-63.9038Q13.208-58.2764 10.022-50.9155Q6.83594-43.5547 6.83594-35.1807Q6.83594-26.8066 10.022-19.4458Q13.208-12.085 18.8232-6.45752Q24.4385-0.830078 31.7993 2.34375Q39.1602 5.51758 47.5342 5.51758ZM30.9082-15.4297Q29.2969-15.4297 28.4912-16.4307Q27.6855-17.4316 27.6855-18.8721Q27.6855-20.459 28.8574-22.9614Q30.0293-25.4639 32.4585-27.9663Q34.8877-30.4688 38.6353-32.1777Q42.3828-33.8867 47.5586-33.8867Q52.71-33.8867 56.4575-32.1777Q60.2051-30.4688 62.6343-27.9663Q65.0635-25.4639 66.2354-22.9614Q67.4072-20.459 67.4072-18.8721Q67.4072-17.4316 66.6016-16.4307Q65.7959-15.4297 64.1846-15.4297ZM47.5586-36.8408Q43.4082-36.8652 40.4541-39.9902Q37.5-43.1152 37.5-47.8027Q37.5-52.2217 40.4541-55.3711Q43.4082-58.5205 47.5586-58.5205Q51.709-58.5205 54.6509-55.3711Q57.5928-52.2217 57.5928-47.8027Q57.5928-43.1152 54.6509-39.9658Q51.709-36.8164 47.5586-36.8408Z"/>
  </g>
  <g id="Semibold-S" transform="matrix(1 0 0 1 1996.19 696)">
   <path d="M47.0632 5.0377Q55.355 5.0377 62.6314 1.89941Q69.9078-1.23887 75.4608-6.80854Q81.0139-12.3782 84.1688-19.6546Q87.3237-26.9311 87.3237-35.1896Q87.3237-43.448 84.1688-50.7245Q81.0139-58.0009 75.4442-63.5706Q69.8745-69.1402 62.5981-72.2785Q55.3217-75.4168 47.0299-75.4168Q38.7714-75.4168 31.495-72.2785Q24.2186-69.1402 18.6822-63.5706Q13.1458-58.0009 9.99087-50.7245Q6.83594-43.448 6.83594-35.1896Q6.83594-26.9311 9.99087-19.6546Q13.1458-12.3782 18.6988-6.80854Q24.2519-1.23887 31.5283 1.89941Q38.8047 5.0377 47.0632 5.0377ZM29.9662-15.3053Q28.4615-15.3053 27.7181-16.2263Q26.9746-17.1473 26.9746-18.5077Q26.9746-20.1035 28.1731-22.6282Q29.3717-25.1528 31.8409-27.6775Q34.3101-30.2021 38.0976-31.9289Q41.8852-33.6557 47.0965-33.6557Q52.2745-33.6557 56.0621-31.9289Q59.8496-30.2021 62.3188-27.6775Q64.788-25.1528 65.9865-22.6282Q67.1851-20.1035 67.1851-18.5077Q67.1851-17.1473 66.4416-16.2263Q65.6981-15.3053 64.1935-15.3053ZM47.0965-36.7253Q42.9105-36.7586 39.9387-39.9014Q36.9668-43.0441 36.9668-47.7672Q36.9668-52.2128 39.9387-55.3889Q42.9105-58.5649 47.0965-58.5649Q51.2824-58.5649 54.2376-55.3889Q57.1929-52.2128 57.1929-47.7672Q57.1929-43.0441 54.2376-39.8681Q51.2824-36.692 47.0965-36.7253Z"/>
  </g>
  <g id="Medium-S" transform="matrix(1 0 0 1 1699.83 696)">
   <path d="M46.7061 4.67383Q54.917 4.67383 62.1294 1.5625Q69.3418-1.54883 74.8477-7.07471Q80.3535-12.6006 83.4849-19.813Q86.6162-27.0254 86.6162-35.1963Q86.6162-43.3672 83.4849-50.5796Q80.3535-57.792 74.8276-63.3179Q69.3018-68.8438 62.0894-71.9551Q54.877-75.0664 46.666-75.0664Q38.4951-75.0664 31.2827-71.9551Q24.0703-68.8438 18.5845-63.3179Q13.0986-57.792 9.96729-50.5796Q6.83594-43.3672 6.83594-35.1963Q6.83594-27.0254 9.96729-19.813Q13.0986-12.6006 18.6045-7.07471Q24.1104-1.54883 31.3228 1.5625Q38.5352 4.67383 46.7061 4.67383ZM29.252-15.2109Q27.8281-15.2109 27.1318-16.0713Q26.4355-16.9316 26.4355-18.2314Q26.4355-19.834 27.6543-22.3755Q28.873-24.917 31.3726-27.4585Q33.8721-30 37.6899-31.7402Q41.5078-33.4805 46.7461-33.4805Q51.9443-33.4805 55.7622-31.7402Q59.5801-30 62.0796-27.4585Q64.5791-24.917 65.7979-22.3755Q67.0166-19.834 67.0166-18.2314Q67.0166-16.9316 66.3203-16.0713Q65.624-15.2109 64.2002-15.2109ZM46.7461-36.6377Q42.5332-36.6777 39.5479-39.834Q36.5625-42.9902 36.5625-47.7402Q36.5625-52.2061 39.5479-55.4023Q42.5332-58.5986 46.7461-58.5986Q50.959-58.5986 53.9243-55.4023Q56.8896-52.2061 56.8896-47.7402Q56.8896-42.9902 53.9243-39.7939Q50.959-36.5977 46.7461-36.6377Z"/>
  </g>
  <g id="Regular-S" transform="matrix(1 0 0 1 1403.58 696)">
   <path d="M46.2402 4.19922Q54.3457 4.19922 61.4746 1.12305Q68.6035-1.95312 74.0479-7.42188Q79.4922-12.8906 82.5928-20.0195Q85.6934-27.1484 85.6934-35.2051Q85.6934-43.2617 82.5928-50.3906Q79.4922-57.5195 74.0234-62.9883Q68.5547-68.457 61.4258-71.5332Q54.2969-74.6094 46.1914-74.6094Q38.1348-74.6094 31.0059-71.5332Q23.877-68.457 18.457-62.9883Q13.0371-57.5195 9.93652-50.3906Q6.83594-43.2617 6.83594-35.2051Q6.83594-27.1484 9.93652-20.0195Q13.0371-12.8906 18.4814-7.42188Q23.9258-1.95312 31.0547 1.12305Q38.1836 4.19922 46.2402 4.19922ZM28.3203-15.0879Q27.002-15.0879 26.3672-15.8691Q25.7324-16.6504 25.7324-17.8711Q25.7324-19.4824 26.9775-22.0459Q28.2227-24.6094 30.7617-27.1729Q33.3008-29.7363 37.1582-31.4941Q41.0156-33.252 46.2891-33.252Q51.5137-33.252 55.3711-31.4941Q59.2285-29.7363 61.7676-27.1729Q64.3066-24.6094 65.5518-22.0459Q66.7969-19.4824 66.7969-17.8711Q66.7969-16.6504 66.1621-15.8691Q65.5273-15.0879 64.209-15.0879ZM46.2891-36.5234Q42.041-36.5723 39.0381-39.7461Q36.0352-42.9199 36.0352-47.7051Q36.0352-52.1973 39.0381-55.4199Q42.041-58.6426 46.2891-58.6426Q50.5371-58.6426 53.5156-55.4199Q56.4941-52.1973 56.4941-47.7051Q56.4941-42.9199 53.5156-39.6973Q50.5371-36.4746 46.2891-36.5234Z"/>
  </g>
  <g id="Light-S" transform="matrix(1 0 0 1 1107.6 696)">
   <path d="M45.5078 3.4668Q53.4831 3.4668 60.4736 0.455729Q67.4642-2.55534 72.8109-7.91829Q78.1576-13.2812 81.193-20.2718Q84.2285-27.2624 84.2285-35.2051Q84.2285-43.1478 81.193-50.1383Q78.1576-57.1289 72.7946-62.4919Q67.4316-67.8548 60.4411-70.8659Q53.4505-73.877 45.4753-73.877Q37.5488-73.877 30.5501-70.8659Q23.5514-67.8548 18.2292-62.4919Q12.9069-57.1289 9.87142-50.1383Q6.83594-43.1478 6.83594-35.2051Q6.83594-27.2624 9.87142-20.2718Q12.9069-13.2812 18.2454-7.91829Q23.584-2.55534 30.5827 0.455729Q37.5814 3.4668 45.5078 3.4668ZM27.4414-15.2018Q26.3509-15.2018 25.8464-15.8366Q25.3418-16.4714 25.3418-17.4967Q25.3418-19.1081 26.5625-21.7041Q27.7832-24.3001 30.2816-26.8962Q32.7799-29.4922 36.5723-31.2826Q40.3646-33.0729 45.5404-33.0729Q50.6836-33.0729 54.484-31.2826Q58.2845-29.4922 60.7747-26.8962Q63.265-24.3001 64.4857-21.7041Q65.7064-19.1081 65.7064-17.4967Q65.7064-16.4714 65.2018-15.8366Q64.6973-15.2018 63.6068-15.2018ZM45.5404-36.2793Q41.3574-36.3118 38.4196-39.4287Q35.4818-42.5456 35.4818-47.2493Q35.4818-51.6764 38.4196-54.8421Q41.3574-58.0078 45.5404-58.0078Q49.7233-58.0078 52.6449-54.8421Q55.5664-51.6764 55.5664-47.2493Q55.5664-42.5456 52.6449-39.3962Q49.7233-36.2467 45.5404-36.2793Z"/>
  </g>
  <g id="Thin-S" transform="matrix(1 0 0 1 811.863 696)">
   <path d="M44.5391 2.49811Q52.3422 2.49811 59.1498-0.426852Q65.9573-3.35181 71.1749-8.57485Q76.3924-13.7979 79.3418-20.6055Q82.2911-27.4131 82.2911-35.2051Q82.2911-42.9971 79.3418-49.8047Q76.3924-56.6123 71.1694-61.8353Q65.9463-67.0583 59.1387-69.9833Q52.3311-72.9083 44.5281-72.9083Q36.7739-72.9083 29.9474-69.9833Q23.1209-67.0583 17.9278-61.8353Q12.7347-56.6123 9.78531-49.8047Q6.83594-42.9971 6.83594-35.2051Q6.83594-27.4131 9.78531-20.6055Q12.7347-13.7979 17.9333-8.57485Q23.1319-3.35181 29.9584-0.426852Q36.7849 2.49811 44.5391 2.49811ZM26.279-15.3525Q25.4899-15.3525 25.1575-15.7935Q24.8252-16.2346 24.8252-17.0016Q24.8252-18.613 26.0136-21.252Q27.202-23.8911 29.6465-26.5302Q32.0911-29.1693 35.7973-31.0027Q39.5035-32.8361 44.5502-32.8361Q49.5857-32.8361 53.3109-31.0027Q57.036-29.1693 59.4616-26.5302Q61.8873-23.8911 63.0757-21.252Q64.2641-18.613 64.2641-17.0016Q64.2641-16.2346 63.9318-15.7935Q63.5994-15.3525 62.8103-15.3525ZM44.5502-35.9564Q40.4533-35.9674 37.6016-39.0089Q34.7499-42.0505 34.7499-46.6466Q34.7499-50.9876 37.6016-54.0779Q40.4533-57.1683 44.5502-57.1683Q48.647-57.1683 51.4932-54.0779Q54.3394-50.9876 54.3394-46.6466Q54.3394-42.0505 51.4932-38.9979Q48.647-35.9454 44.5502-35.9564Z"/>
  </g>
  <g id="Ultralight-S" transform="matrix(1 0 0 1 515.649 696)">
   <path d="M44.043 2.00195Q51.7578 2.00195 58.4717-0.878906Q65.1855-3.75977 70.3369-8.91113Q75.4883-14.0625 78.3936-20.7764Q81.2988-27.4902 81.2988-35.2051Q81.2988-42.9199 78.3936-49.6338Q75.4883-56.3477 70.3369-61.499Q65.1855-66.6504 58.4717-69.5312Q51.7578-72.4121 44.043-72.4121Q36.377-72.4121 29.6387-69.5312Q22.9004-66.6504 17.7734-61.499Q12.6465-56.3477 9.74121-49.6338Q6.83594-42.9199 6.83594-35.2051Q6.83594-27.4902 9.74121-20.7764Q12.6465-14.0625 17.7734-8.91113Q22.9004-3.75977 29.6387-0.878906Q36.377 2.00195 44.043 2.00195ZM25.6836-15.4297Q25.0488-15.4297 24.8047-15.7715Q24.5605-16.1133 24.5605-16.748Q24.5605-18.3594 25.7324-21.0205Q26.9043-23.6816 29.3213-26.3428Q31.7383-29.0039 35.4004-30.8594Q39.0625-32.7148 44.043-32.7148Q49.0234-32.7148 52.71-30.8594Q56.3965-29.0039 58.7891-26.3428Q61.1816-23.6816 62.3535-21.0205Q63.5254-18.3594 63.5254-16.748Q63.5254-16.1133 63.2812-15.7715Q63.0371-15.4297 62.4023-15.4297ZM44.043-35.791Q39.9902-35.791 37.1826-38.7939Q34.375-41.7969 34.375-46.3379Q34.375-50.6348 37.1826-53.6865Q39.9902-56.7383 44.043-56.7383Q48.0957-56.7383 50.9033-53.6865Q53.7109-50.6348 53.7109-46.3379Q53.7109-41.7969 50.9033-38.7939Q48.0957-35.791 44.043-35.791Z"/>
  </g>
 </g>
</svg>
